<mxfile host="app.diagrams.net" modified="2023-05-18T00:25:27.519Z" agent="Mozilla/5.0 (Windows NT 10.0; Win64; x64) AppleWebKit/537.36 (KHTML, like Gecko) Chrome/113.0.0.0 Safari/537.36" etag="Hq_dV20BjDbxZFdtvTI5" version="21.3.2" type="device">
  <diagram name="페이지-1" id="WtkZu0wii0dU-JrKq1h0">
    <mxGraphModel dx="1687" dy="889" grid="1" gridSize="10" guides="1" tooltips="1" connect="1" arrows="1" fold="1" page="1" pageScale="1" pageWidth="4681" pageHeight="3300" math="0" shadow="0">
      <root>
        <mxCell id="0" />
        <mxCell id="1" parent="0" />
        <mxCell id="HvuvLrzdTbBWsDnPd2Xs-9" style="rounded=0;orthogonalLoop=1;jettySize=auto;html=1;exitX=0.44;exitY=1.05;exitDx=0;exitDy=0;exitPerimeter=0;" parent="1" source="HvuvLrzdTbBWsDnPd2Xs-1" target="HvuvLrzdTbBWsDnPd2Xs-2" edge="1">
          <mxGeometry relative="1" as="geometry" />
        </mxCell>
        <mxCell id="HvuvLrzdTbBWsDnPd2Xs-10" style="rounded=0;orthogonalLoop=1;jettySize=auto;html=1;exitX=0.5;exitY=1;exitDx=0;exitDy=0;" parent="1" source="HvuvLrzdTbBWsDnPd2Xs-1" target="HvuvLrzdTbBWsDnPd2Xs-3" edge="1">
          <mxGeometry relative="1" as="geometry" />
        </mxCell>
        <mxCell id="HvuvLrzdTbBWsDnPd2Xs-11" style="rounded=0;orthogonalLoop=1;jettySize=auto;html=1;entryX=0.5;entryY=0;entryDx=0;entryDy=0;exitX=0.5;exitY=1;exitDx=0;exitDy=0;" parent="1" source="HvuvLrzdTbBWsDnPd2Xs-1" target="HvuvLrzdTbBWsDnPd2Xs-4" edge="1">
          <mxGeometry relative="1" as="geometry" />
        </mxCell>
        <mxCell id="HvuvLrzdTbBWsDnPd2Xs-12" style="rounded=0;orthogonalLoop=1;jettySize=auto;html=1;entryX=0.64;entryY=-0.025;entryDx=0;entryDy=0;entryPerimeter=0;exitX=0.5;exitY=1;exitDx=0;exitDy=0;" parent="1" source="HvuvLrzdTbBWsDnPd2Xs-1" target="HvuvLrzdTbBWsDnPd2Xs-6" edge="1">
          <mxGeometry relative="1" as="geometry" />
        </mxCell>
        <mxCell id="HvuvLrzdTbBWsDnPd2Xs-13" style="rounded=0;orthogonalLoop=1;jettySize=auto;html=1;exitX=0.5;exitY=1;exitDx=0;exitDy=0;" parent="1" source="HvuvLrzdTbBWsDnPd2Xs-1" target="HvuvLrzdTbBWsDnPd2Xs-7" edge="1">
          <mxGeometry relative="1" as="geometry" />
        </mxCell>
        <mxCell id="HvuvLrzdTbBWsDnPd2Xs-14" style="rounded=0;orthogonalLoop=1;jettySize=auto;html=1;entryX=0.5;entryY=0;entryDx=0;entryDy=0;exitX=0.5;exitY=1;exitDx=0;exitDy=0;" parent="1" source="HvuvLrzdTbBWsDnPd2Xs-1" target="HvuvLrzdTbBWsDnPd2Xs-8" edge="1">
          <mxGeometry relative="1" as="geometry" />
        </mxCell>
        <mxCell id="HvuvLrzdTbBWsDnPd2Xs-1" value="고객정보" style="rounded=1;arcSize=10;whiteSpace=wrap;html=1;align=center;" parent="1" vertex="1">
          <mxGeometry x="490" y="185" width="100" height="40" as="geometry" />
        </mxCell>
        <mxCell id="HvuvLrzdTbBWsDnPd2Xs-2" value="고객ID" style="ellipse;whiteSpace=wrap;html=1;align=center;fontStyle=4;" parent="1" vertex="1">
          <mxGeometry x="210" y="395" width="100" height="40" as="geometry" />
        </mxCell>
        <mxCell id="HvuvLrzdTbBWsDnPd2Xs-3" value="고객이름" style="ellipse;whiteSpace=wrap;html=1;align=center;" parent="1" vertex="1">
          <mxGeometry x="330" y="395" width="100" height="40" as="geometry" />
        </mxCell>
        <mxCell id="HvuvLrzdTbBWsDnPd2Xs-4" value="전화번호" style="ellipse;whiteSpace=wrap;html=1;align=center;" parent="1" vertex="1">
          <mxGeometry x="440" y="395" width="100" height="40" as="geometry" />
        </mxCell>
        <mxCell id="HvuvLrzdTbBWsDnPd2Xs-6" value="주소" style="ellipse;whiteSpace=wrap;html=1;align=center;" parent="1" vertex="1">
          <mxGeometry x="550" y="395" width="100" height="40" as="geometry" />
        </mxCell>
        <mxCell id="HvuvLrzdTbBWsDnPd2Xs-7" value="생년월일" style="ellipse;whiteSpace=wrap;html=1;align=center;" parent="1" vertex="1">
          <mxGeometry x="660" y="395" width="100" height="40" as="geometry" />
        </mxCell>
        <mxCell id="HvuvLrzdTbBWsDnPd2Xs-8" value="직업" style="ellipse;whiteSpace=wrap;html=1;align=center;" parent="1" vertex="1">
          <mxGeometry x="770" y="395" width="100" height="40" as="geometry" />
        </mxCell>
        <mxCell id="HvuvLrzdTbBWsDnPd2Xs-29" style="rounded=0;orthogonalLoop=1;jettySize=auto;html=1;exitX=0.5;exitY=1;exitDx=0;exitDy=0;" parent="1" source="_kpMqasIv_2ZBy4shJ0D-2" target="HvuvLrzdTbBWsDnPd2Xs-36" edge="1">
          <mxGeometry relative="1" as="geometry">
            <mxPoint x="1129" y="157" as="sourcePoint" />
          </mxGeometry>
        </mxCell>
        <mxCell id="HvuvLrzdTbBWsDnPd2Xs-30" style="rounded=0;orthogonalLoop=1;jettySize=auto;html=1;exitX=0.5;exitY=1;exitDx=0;exitDy=0;" parent="1" source="_kpMqasIv_2ZBy4shJ0D-1" target="HvuvLrzdTbBWsDnPd2Xs-37" edge="1">
          <mxGeometry relative="1" as="geometry">
            <mxPoint x="1040" y="360" as="sourcePoint" />
          </mxGeometry>
        </mxCell>
        <mxCell id="HvuvLrzdTbBWsDnPd2Xs-31" style="rounded=0;orthogonalLoop=1;jettySize=auto;html=1;entryX=0.5;entryY=0;entryDx=0;entryDy=0;exitX=0.5;exitY=1;exitDx=0;exitDy=0;" parent="1" source="_kpMqasIv_2ZBy4shJ0D-1" target="HvuvLrzdTbBWsDnPd2Xs-38" edge="1">
          <mxGeometry relative="1" as="geometry">
            <mxPoint x="1040" y="360" as="sourcePoint" />
          </mxGeometry>
        </mxCell>
        <mxCell id="HvuvLrzdTbBWsDnPd2Xs-32" style="rounded=0;orthogonalLoop=1;jettySize=auto;html=1;entryX=0.64;entryY=-0.025;entryDx=0;entryDy=0;entryPerimeter=0;exitX=0.5;exitY=1;exitDx=0;exitDy=0;" parent="1" source="_kpMqasIv_2ZBy4shJ0D-1" target="HvuvLrzdTbBWsDnPd2Xs-39" edge="1">
          <mxGeometry relative="1" as="geometry">
            <mxPoint x="1040" y="360" as="sourcePoint" />
          </mxGeometry>
        </mxCell>
        <mxCell id="HvuvLrzdTbBWsDnPd2Xs-33" style="rounded=0;orthogonalLoop=1;jettySize=auto;html=1;exitX=0.5;exitY=1;exitDx=0;exitDy=0;" parent="1" source="_kpMqasIv_2ZBy4shJ0D-1" target="HvuvLrzdTbBWsDnPd2Xs-40" edge="1">
          <mxGeometry relative="1" as="geometry">
            <mxPoint x="1040" y="360" as="sourcePoint" />
          </mxGeometry>
        </mxCell>
        <mxCell id="HvuvLrzdTbBWsDnPd2Xs-34" style="rounded=0;orthogonalLoop=1;jettySize=auto;html=1;entryX=0.5;entryY=0;entryDx=0;entryDy=0;exitX=0.5;exitY=1;exitDx=0;exitDy=0;" parent="1" source="_kpMqasIv_2ZBy4shJ0D-1" target="HvuvLrzdTbBWsDnPd2Xs-41" edge="1">
          <mxGeometry relative="1" as="geometry">
            <mxPoint x="1020" y="260" as="sourcePoint" />
          </mxGeometry>
        </mxCell>
        <mxCell id="HvuvLrzdTbBWsDnPd2Xs-36" value="계좌번호" style="ellipse;whiteSpace=wrap;html=1;align=center;fontStyle=4;" parent="1" vertex="1">
          <mxGeometry x="1340" y="345" width="100" height="40" as="geometry" />
        </mxCell>
        <mxCell id="HvuvLrzdTbBWsDnPd2Xs-37" value="입출일자" style="ellipse;whiteSpace=wrap;html=1;align=center;" parent="1" vertex="1">
          <mxGeometry x="760" y="230" width="100" height="40" as="geometry" />
        </mxCell>
        <mxCell id="HvuvLrzdTbBWsDnPd2Xs-38" value="입출시각" style="ellipse;whiteSpace=wrap;html=1;align=center;" parent="1" vertex="1">
          <mxGeometry x="870" y="230" width="100" height="40" as="geometry" />
        </mxCell>
        <mxCell id="HvuvLrzdTbBWsDnPd2Xs-39" value="입출구분" style="ellipse;whiteSpace=wrap;html=1;align=center;" parent="1" vertex="1">
          <mxGeometry x="980" y="230" width="100" height="40" as="geometry" />
        </mxCell>
        <mxCell id="HvuvLrzdTbBWsDnPd2Xs-40" value="입금" style="ellipse;whiteSpace=wrap;html=1;align=center;" parent="1" vertex="1">
          <mxGeometry x="1090" y="230" width="100" height="40" as="geometry" />
        </mxCell>
        <mxCell id="HvuvLrzdTbBWsDnPd2Xs-41" value="출금" style="ellipse;whiteSpace=wrap;html=1;align=center;" parent="1" vertex="1">
          <mxGeometry x="1200" y="230" width="100" height="40" as="geometry" />
        </mxCell>
        <mxCell id="_kpMqasIv_2ZBy4shJ0D-1" value="거래내역" style="shape=rhombus;perimeter=rhombusPerimeter;whiteSpace=wrap;html=1;align=center;" vertex="1" parent="1">
          <mxGeometry x="970" y="50" width="120" height="60" as="geometry" />
        </mxCell>
        <mxCell id="_kpMqasIv_2ZBy4shJ0D-2" value="계좌정보" style="rounded=1;arcSize=10;whiteSpace=wrap;html=1;align=center;" vertex="1" parent="1">
          <mxGeometry x="1505" y="185" width="100" height="40" as="geometry" />
        </mxCell>
        <mxCell id="_kpMqasIv_2ZBy4shJ0D-3" value="" style="edgeStyle=entityRelationEdgeStyle;fontSize=12;html=1;endArrow=ERoneToMany;rounded=0;exitX=0.5;exitY=0;exitDx=0;exitDy=0;entryX=0;entryY=0.5;entryDx=0;entryDy=0;" edge="1" parent="1" source="HvuvLrzdTbBWsDnPd2Xs-1" target="_kpMqasIv_2ZBy4shJ0D-1">
          <mxGeometry width="100" height="100" relative="1" as="geometry">
            <mxPoint x="1040" y="600" as="sourcePoint" />
            <mxPoint x="1140" y="500" as="targetPoint" />
          </mxGeometry>
        </mxCell>
        <mxCell id="_kpMqasIv_2ZBy4shJ0D-4" value="" style="edgeStyle=entityRelationEdgeStyle;fontSize=12;html=1;endArrow=ERoneToMany;rounded=0;exitX=0.5;exitY=0;exitDx=0;exitDy=0;entryX=1;entryY=0.5;entryDx=0;entryDy=0;" edge="1" parent="1" source="_kpMqasIv_2ZBy4shJ0D-2" target="_kpMqasIv_2ZBy4shJ0D-1">
          <mxGeometry width="100" height="100" relative="1" as="geometry">
            <mxPoint x="1040" y="500" as="sourcePoint" />
            <mxPoint x="1140" y="400" as="targetPoint" />
          </mxGeometry>
        </mxCell>
        <mxCell id="_kpMqasIv_2ZBy4shJ0D-5" value="계좌구분" style="ellipse;whiteSpace=wrap;html=1;align=center;" vertex="1" parent="1">
          <mxGeometry x="1450" y="345" width="100" height="40" as="geometry" />
        </mxCell>
        <mxCell id="_kpMqasIv_2ZBy4shJ0D-7" value="고객ID" style="ellipse;whiteSpace=wrap;html=1;align=center;" vertex="1" parent="1">
          <mxGeometry x="1560" y="345" width="100" height="40" as="geometry" />
        </mxCell>
        <mxCell id="_kpMqasIv_2ZBy4shJ0D-8" value="보유잔액" style="ellipse;whiteSpace=wrap;html=1;align=center;" vertex="1" parent="1">
          <mxGeometry x="1670" y="345" width="100" height="40" as="geometry" />
        </mxCell>
        <mxCell id="_kpMqasIv_2ZBy4shJ0D-10" style="rounded=0;orthogonalLoop=1;jettySize=auto;html=1;exitX=0.5;exitY=1;exitDx=0;exitDy=0;entryX=0.5;entryY=0;entryDx=0;entryDy=0;" edge="1" parent="1" source="_kpMqasIv_2ZBy4shJ0D-2" target="_kpMqasIv_2ZBy4shJ0D-5">
          <mxGeometry relative="1" as="geometry">
            <mxPoint x="1565" y="235" as="sourcePoint" />
            <mxPoint x="1449" y="318" as="targetPoint" />
          </mxGeometry>
        </mxCell>
        <mxCell id="_kpMqasIv_2ZBy4shJ0D-11" style="rounded=0;orthogonalLoop=1;jettySize=auto;html=1;exitX=0.5;exitY=1;exitDx=0;exitDy=0;entryX=0.5;entryY=0;entryDx=0;entryDy=0;" edge="1" parent="1" source="_kpMqasIv_2ZBy4shJ0D-2" target="_kpMqasIv_2ZBy4shJ0D-7">
          <mxGeometry relative="1" as="geometry">
            <mxPoint x="1565" y="235" as="sourcePoint" />
            <mxPoint x="1535" y="315" as="targetPoint" />
          </mxGeometry>
        </mxCell>
        <mxCell id="_kpMqasIv_2ZBy4shJ0D-12" style="rounded=0;orthogonalLoop=1;jettySize=auto;html=1;exitX=0.5;exitY=1;exitDx=0;exitDy=0;entryX=0.5;entryY=0;entryDx=0;entryDy=0;" edge="1" parent="1" source="_kpMqasIv_2ZBy4shJ0D-2" target="_kpMqasIv_2ZBy4shJ0D-8">
          <mxGeometry relative="1" as="geometry">
            <mxPoint x="1565" y="235" as="sourcePoint" />
            <mxPoint x="1645" y="315" as="targetPoint" />
          </mxGeometry>
        </mxCell>
      </root>
    </mxGraphModel>
  </diagram>
</mxfile>
